# xmcd CD Database Entry
#
# Track frame offsets:
# 150
# 15012
# 38517
# 62897
# 81129
# 107110
# 134070
# 149597
# 173012
# 199757
# 217777
# 237082
# 259570
# 283577
# 307840
# 330930
#
# Disc length: 4607 seconds
#
# Revision: 2
# Processed by: cddbd v1.4PL0 Copyright (c) Steve Scherf et al.
# Submitted via: tcd 2.0b
#
DISCID=d011fd10
DTITLE=Mauro Picotto - The Triple Album [CD1)
DYEAR=2001
DGENRE=Dance
TTITLE0=Komodo (Radio Version)
TTITLE1=Pulsar
TTITLE2=Like This, Like That
TTITLE3=Bug
TTITLE4=Taub
TTITLE5=Planet
TTITLE6=Proximus (Radio Version)
TTITLE7=Lizard
TTITLE8=Ultimahora Ibiza
TTITLE9=Iguana
TTITLE10=Verdi
TTITLE11=Kebab
TTITLE12=Underground
TTITLE13=Pegasus
TTITLE14=Baguette
TTITLE15=Like This, Like That (Radio Version)
EXTD=YEAR: 2001 ID3G:   3
EXTT0=
EXTT1=
EXTT2=
EXTT3=
EXTT4=
EXTT5=
EXTT6=
EXTT7=
EXTT8=
EXTT9=
EXTT10=
EXTT11=
EXTT12=
EXTT13=
EXTT14=
EXTT15=
PLAYORDER=
